<svg xmlns="http://www.w3.org/2000/svg" xmlns:xlink="http://www.w3.org/1999/xlink" version="1.1" x="0px" y="0px" viewBox="0 0 100 125" enable-background="new 0 0 100 100" xml:space="preserve"><path d="M52.962,35.793c1.114,0.802,2.442,1.182,3.854,1.182c3.147,0,6.705-1.892,9.205-5.206  c3.639-4.828,3.676-10.802,0.074-13.381c-1.102-0.801-2.42-1.18-3.822-1.18c-3.138,0-6.697,1.897-9.195,5.219  C49.425,27.246,49.398,33.222,52.962,35.793z M55.475,24.229c1.838-2.443,4.506-4.022,6.798-4.022c0.813,0,1.505,0.204,2.075,0.619  c0.734,0.525,1.191,1.348,1.358,2.445c0.313,2.045-0.465,4.547-2.08,6.69c-1.839,2.438-4.513,4.013-6.811,4.013  c-0.825,0-1.532-0.208-2.099-0.615c-0.902-0.651-1.227-1.687-1.34-2.442C53.07,28.868,53.852,26.371,55.475,24.229z M32.803,35.484  c1.11,0.797,2.435,1.175,3.843,1.175c3.149,0,6.714-1.891,9.216-5.206c3.634-4.82,3.671-10.8,0.088-13.38  c-1.108-0.8-2.428-1.179-3.832-1.178c-3.143,0-6.701,1.898-9.213,5.217C29.267,26.933,29.229,32.921,32.803,35.484z M35.297,23.922  c1.852-2.447,4.53-4.028,6.822-4.028c0.815,0,1.513,0.205,2.077,0.612c0.909,0.655,1.236,1.693,1.35,2.449  c0.311,2.05-0.467,4.551-2.079,6.69c-1.84,2.438-4.517,4.013-6.821,4.013c-0.824,0-1.528-0.206-2.094-0.613  c-0.897-0.643-1.222-1.673-1.336-2.423C32.902,28.569,33.682,26.063,35.297,23.922z M69.98,49.686c2.435,0,5.16-0.919,7.583-2.759  c4.83-3.625,6.631-9.458,4.063-13.03c-1.291-1.776-3.411-2.663-5.807-2.663c-2.437,0-5.157,0.917-7.583,2.746  c-4.793,3.62-6.604,9.466-4.027,13.049C65.478,48.799,67.589,49.686,69.98,49.686z M70.044,36.374  c1.804-1.36,3.909-2.141,5.776-2.141c0.875,0,2.478,0.186,3.37,1.414c1.393,1.938,0.327,6.062-3.441,8.891  c-1.798,1.365-3.9,2.148-5.769,2.148c-0.869,0-2.457-0.183-3.335-1.409C65.072,43.089,66.661,38.929,70.044,36.374z M81.889,54.102  c-1.279-1.778-3.398-2.668-5.796-2.668c-2.434,0-5.155,0.917-7.58,2.75c-4.801,3.625-6.611,9.479-4.025,13.064  c1.268,1.765,3.373,2.648,5.761,2.648c2.434,0,5.16-0.918,7.595-2.76C82.662,63.518,84.463,57.666,81.889,54.102z M76.033,64.744  c-1.809,1.368-3.917,2.152-5.785,2.152c-0.866,0-2.449-0.182-3.328-1.403c-1.579-2.189,0.01-6.355,3.402-8.917  c1.801-1.361,3.904-2.143,5.771-2.143c0.874,0,2.472,0.185,3.364,1.425C80.855,57.795,79.797,61.918,76.033,64.744z M56.103,43.869  c-4.908-4.918-11.562-2.166-18.672-4.566c-1.759-0.595-3.559-0.871-5.326-0.871c-9.407,0-17.888,7.823-14.336,16.985  c3.469,8.967,8.547,6.954,14.204,12.597c5.624,5.623,3.619,10.813,12.567,14.268c1.455,0.564,2.878,0.825,4.24,0.825  c8.833,0,15.147-10.936,11.867-20.569C58.263,55.443,60.998,48.759,56.103,43.869z M55.979,75.99  c-1.101,1.537-3.499,4.116-7.199,4.116c-1.03,0-2.091-0.209-3.159-0.624c-4.402-1.699-5.35-3.63-6.786-6.552  c-1.04-2.117-2.219-4.518-4.743-7.041c-2.523-2.518-5.006-3.749-7-4.738c-2.897-1.438-4.811-2.388-6.525-6.818  c-1.327-3.424-0.279-6.079,0.833-7.704c2.163-3.158,6.365-5.198,10.706-5.198c1.498,0,2.966,0.24,4.366,0.713  c3.224,1.088,6.293,1.244,9.001,1.38c4.068,0.205,6.47,0.421,8.511,2.466c2.031,2.029,2.246,4.435,2.451,8.513  c0.136,2.707,0.289,5.774,1.373,8.999C59.221,67.656,58.52,72.44,55.979,75.99z"/><text x="0" y="115" fill="#000000" font-size="5px" font-weight="bold" font-family="'Helvetica Neue', Helvetica, Arial-Unicode, Arial, Sans-serif"></text><text x="0" y="120" fill="#000000" font-size="5px" font-weight="bold" font-family="'Helvetica Neue', Helvetica, Arial-Unicode, Arial, Sans-serif">from the Noun Project</text></svg>
</svg>
