<?xml version="1.0" encoding="UTF-8" standalone="no"?>
<svg width="74px" height="66px" viewBox="0 0 74 66" version="1.1" xmlns="http://www.w3.org/2000/svg" xmlns:xlink="http://www.w3.org/1999/xlink">
    <!-- Generator: Sketch 39.1 (31720) - http://www.bohemiancoding.com/sketch -->
    <defs></defs>
    <g id="Page-1" stroke="none" stroke-width="1" fill="none" fill-rule="evenodd">
        <g id="logo" fill="#FF5A5F">
            <g id="Group">
                <path d="M73.673,31.976 C73.673,31.586 73.493,31.218 73.186,30.977 L67.877,26.831 L46.213,9.426 C46.171,9.392 46.126,9.366 46.081,9.338 C41.189,3.902 34.369,0.819 27.088,0.819 C12.964,0.819 1.474,12.308 1.474,26.43 C1.474,29.786 2.12,33.053 3.393,36.15 L0.669,45.494 C0.658,45.531 0.648,45.57 0.642,45.607 C0.43,46.699 0.328,47.718 0.328,48.728 C0.328,57.8 7.709,65.181 16.781,65.181 C24.893,65.181 31.927,59.161 33.196,51.314 C34.714,50.949 36.157,50.439 37.71,49.716 C41.599,52.698 46.397,54.335 51.314,54.335 C56.399,54.335 61.374,52.581 65.322,49.394 C69.21,46.257 71.966,41.861 73.084,37.015 L73.084,37.013 C73.475,35.316 73.673,33.621 73.673,31.976 L73.673,31.976 Z M70.862,35.205 C70.824,35.191 70.786,35.18 70.748,35.164 C70.699,35.144 70.651,35.127 70.603,35.105 C70.519,35.07 70.436,35.031 70.355,34.99 C70.313,34.97 70.27,34.951 70.228,34.928 C70.131,34.877 70.037,34.823 69.944,34.764 C69.922,34.75 69.897,34.737 69.875,34.723 C69.761,34.649 69.648,34.571 69.541,34.487 C69.515,34.467 69.489,34.446 69.464,34.425 C69.384,34.361 69.306,34.296 69.231,34.226 C69.196,34.195 69.163,34.162 69.129,34.13 C69.065,34.068 69.001,34.003 68.941,33.939 C68.908,33.902 68.875,33.865 68.841,33.828 C68.782,33.762 68.727,33.693 68.672,33.623 C68.643,33.586 68.613,33.549 68.585,33.51 C68.526,33.43 68.471,33.348 68.417,33.264 C68.397,33.235 68.376,33.205 68.357,33.174 C68.286,33.059 68.219,32.94 68.159,32.819 C68.148,32.799 68.14,32.778 68.131,32.758 C68.082,32.656 68.035,32.553 67.992,32.447 C67.975,32.404 67.961,32.36 67.945,32.317 C67.913,32.231 67.883,32.144 67.857,32.057 C67.841,32.007 67.828,31.958 67.814,31.909 C67.792,31.824 67.771,31.737 67.752,31.649 C67.741,31.599 67.731,31.548 67.722,31.498 C67.705,31.404 67.693,31.309 67.682,31.214 C67.676,31.169 67.669,31.125 67.665,31.079 C67.653,30.938 67.645,30.797 67.645,30.653 C67.645,30.542 67.65,30.431 67.659,30.32 C67.662,30.286 67.666,30.252 67.669,30.218 C67.677,30.137 67.687,30.057 67.699,29.977 C67.702,29.957 67.705,29.937 67.708,29.917 L71.129,32.588 C71.101,33.447 71.011,34.322 70.862,35.205 L70.862,35.205 Z M27.088,3.352 C34.177,3.352 40.787,6.603 45.242,12.273 C45.245,12.278 45.249,12.282 45.252,12.287 C45.257,12.294 45.262,12.3 45.267,12.307 C45.298,12.352 45.331,12.394 45.369,12.434 C45.707,12.878 46.178,13.501 46.47,13.951 L46.494,13.989 C46.816,14.488 47.122,15.004 47.403,15.522 C47.409,15.534 47.415,15.545 47.421,15.556 C47.714,16.099 47.982,16.644 48.223,17.196 C48.238,17.233 48.252,17.27 48.269,17.307 C48.52,17.885 48.727,18.411 48.903,18.919 C48.913,18.946 48.921,18.976 48.929,19.004 C48.947,19.067 48.965,19.131 48.986,19.192 C49.134,19.635 49.304,20.163 49.445,20.713 C49.466,20.794 49.482,20.875 49.499,20.957 C49.517,21.045 49.535,21.135 49.556,21.22 L49.575,21.304 C49.677,21.738 49.771,22.148 49.842,22.558 C49.873,22.738 49.895,22.932 49.918,23.137 C49.931,23.247 49.943,23.357 49.958,23.47 C49.973,23.587 49.989,23.704 50.006,23.822 C50.038,24.048 50.068,24.261 50.086,24.469 C50.142,25.128 50.17,25.788 50.17,26.432 C50.17,35.248 45.244,43.168 37.315,47.099 L37.311,47.1 C35.875,47.811 34.573,48.321 33.235,48.69 C33.232,47.559 33.103,46.422 32.841,45.219 C32.835,45.19 32.827,45.16 32.82,45.133 L24.61,17.036 C23.781,13.432 20.493,10.819 16.781,10.819 C13.426,10.819 10.407,12.93 9.251,16.079 C9.234,16.12 9.22,16.162 9.207,16.205 L4.649,31.841 C4.223,30.078 4.008,28.269 4.008,26.43 C4.008,13.705 14.361,3.352 27.088,3.352 L27.088,3.352 Z M16.78,62.648 C9.105,62.648 2.86,56.404 2.86,48.728 C2.86,47.9 2.944,47.054 3.117,46.146 L5.95,36.429 L11.622,16.967 C12.41,14.803 14.479,13.351 16.78,13.351 C19.317,13.351 21.565,15.132 22.136,17.59 C22.144,17.627 22.153,17.664 22.163,17.7 L30.374,45.798 C31.011,48.081 30.813,49.986 30.798,50.142 L30.798,50.142 C30.08,57.154 23.923,62.648 16.78,62.648 L16.78,62.648 Z M63.73,47.424 C60.179,50.289 55.886,51.803 51.313,51.803 C47.35,51.803 43.473,50.606 40.21,48.403 C47.963,43.788 52.7,35.542 52.7,26.431 C52.7,25.716 52.668,24.983 52.606,24.256 C52.583,23.977 52.545,23.716 52.509,23.464 C52.494,23.358 52.479,23.252 52.466,23.148 C52.453,23.048 52.442,22.949 52.431,22.849 C52.405,22.62 52.377,22.382 52.334,22.132 C52.251,21.647 52.143,21.181 52.038,20.731 L52.018,20.646 C52.003,20.582 51.99,20.518 51.977,20.453 C51.951,20.325 51.924,20.197 51.893,20.079 C51.735,19.457 51.547,18.876 51.384,18.389 C51.375,18.363 51.368,18.336 51.361,18.308 C51.34,18.232 51.317,18.157 51.293,18.087 C51.095,17.518 50.864,16.929 50.586,16.288 C50.584,16.283 50.581,16.279 50.579,16.274 L50.583,16.281 C50.566,16.239 50.55,16.198 50.539,16.174 C50.534,16.163 50.529,16.153 50.524,16.141 L65.545,28.209 C65.534,28.238 64.518,31.521 65.93,34.025 C65.946,34.052 66.961,36.527 70.235,37.671 C70.252,37.677 70.266,37.683 70.283,37.689 C69.138,41.49 66.843,44.912 63.73,47.424 L63.73,47.424 Z" id="Shape"></path>
                <path d="M42.934,27.228 C45.427,27.228 47.455,25.2 47.455,22.707 C47.455,20.214 45.427,18.186 42.934,18.186 C40.441,18.186 38.413,20.214 38.413,22.707 C38.413,25.2 40.44,27.228 42.934,27.228 L42.934,27.228 Z M42.934,20.719 C44.031,20.719 44.922,21.611 44.922,22.707 C44.922,23.803 44.03,24.695 42.934,24.695 C41.838,24.695 40.947,23.803 40.947,22.707 C40.946,21.611 41.838,20.719 42.934,20.719 L42.934,20.719 Z" id="Shape"></path>
            </g>
        </g>
    </g>
</svg>
