<?xml version="1.0" encoding="UTF-8" standalone="no"?>
<svg width="88px" height="91px" viewBox="0 0 88 91" version="1.1" xmlns="http://www.w3.org/2000/svg" xmlns:xlink="http://www.w3.org/1999/xlink">
    <!-- Generator: Sketch 39.1 (31720) - http://www.bohemiancoding.com/sketch -->
    <title>Shape</title>
    <desc>Created with Sketch.</desc>
    <defs></defs>
    <g id="Page-1" stroke="none" stroke-width="1" fill="none" fill-rule="evenodd">
        <g id="noun_313386_cc" fill="#FFFFFF">
            <path d="M81.456,62.586 C75.72,67.357 68.143,67.704 64.53,63.36 C60.917,59.017 62.637,51.629 68.372,46.86 C74.106,42.09 81.685,41.744 85.296,46.087 C88.911,50.429 87.19,57.815 81.456,62.586 L81.456,62.586 Z M55.083,38.691 C51.384,33.871 53.517,25.363 59.847,19.69 C66.175,14.016 74.306,13.323 78.005,18.143 C81.704,22.963 79.571,31.469 73.241,37.143 C66.913,42.817 58.782,43.511 55.083,38.691 L55.083,38.691 Z M46.765,36.667 C57.318,41.768 55.685,53.953 57.482,59.27 C59.566,65.43 67.293,73.704 62.064,83.006 C56.859,92.271 47.384,92.262 40.683,88.742 C34.009,85.238 31.226,80.732 27.388,78.998 C23.529,77.321 18.818,78.507 11.74,75.92 C4.627,73.32 -1.744,66.311 1.619,56.231 C4.996,46.107 16.316,46.272 22.277,43.675 C27.423,41.434 35.351,32.037 46.218,36.424 C46.224,36.42 46.23,36.409 46.232,36.41 C46.322,36.45 46.406,36.495 46.496,36.536 C46.588,36.575 46.676,36.606 46.766,36.647 C46.769,36.648 46.765,36.66 46.765,36.667 L46.765,36.667 Z M39.353,31.722 C33.298,32.22 28.347,25.732 28.296,17.233 C28.245,8.733 33.114,1.438 39.169,0.94 C45.224,0.441 50.173,6.929 50.224,15.428 C50.274,23.929 45.407,31.223 39.353,31.722 L39.353,31.722 Z M14.122,41.461 C8.479,41.704 3.643,35.859 3.325,28.407 C3.005,20.953 7.319,14.716 12.966,14.473 C18.607,14.231 23.443,20.075 23.763,27.527 C24.083,34.979 19.767,41.219 14.122,41.461 L14.122,41.461 Z" id="Shape"></path>
        </g>
    </g>
</svg>